<?xml version="1.0" encoding="utf-8"?>
<!-- Generator: Adobe Illustrator 18.0.0, SVG Export Plug-In . SVG Version: 6.00 Build 0)  -->
<!DOCTYPE svg PUBLIC "-//W3C//DTD SVG 1.1//EN" "http://www.w3.org/Graphics/SVG/1.1/DTD/svg11.dtd">
<svg version="1.1" id="Layer_1" xmlns="http://www.w3.org/2000/svg" xmlns:xlink="http://www.w3.org/1999/xlink" x="0px" y="0px"
	 viewBox="0 0 64 64" enable-background="new 0 0 64 64" xml:space="preserve">
<g>
	<path d="M63.1,50.3L39,26.2c0.6-1.9,1-4,1-6.2C40,9,31,0,20,0S0,9,0,20s9,20,20,20c2.2,0,4.2-0.4,6.2-1l6,6H36v5h5v5h5v3.8l4.3,4.3
		c0.6,0.6,1.3,0.9,2.1,0.9H61c1.7,0,3-1.3,3-3v-8.6C64,51.6,63.7,50.9,63.1,50.3z M4,20c0-8.8,7.2-16,16-16s16,7.2,16,16
		s-7.2,16-16,16S4,28.8,4,20z M60,60h-7.2L50,57.2V51h-5v-5h-5v-5h-6.2l-3.8-3.8c3-1.7,5.4-4.2,7.2-7.2L60,52.8V60z"/>
	<path d="M16.5,10c-3.6,0-6.5,2.9-6.5,6.5s2.9,6.5,6.5,6.5s6.5-2.9,6.5-6.5S20.1,10,16.5,10z M16.5,19c-1.4,0-2.5-1.1-2.5-2.5
		s1.1-2.5,2.5-2.5s2.5,1.1,2.5,2.5S17.9,19,16.5,19z"/>
</g>
</svg>
